<?xml version="1.0" encoding="UTF-8"?>
<svg id="Layer_1" data-name="Layer 1" xmlns="http://www.w3.org/2000/svg" viewBox="0 0 1267.77 338.82">
  <defs>
    <style>
      .cls-1 {
        fill: #fff;
      }
    </style>
  </defs>
  <path class="cls-1" d="M1177.98,58.8h-148.49c-26.34,0-26.34,18.24-26.34,34.33v181.68h19.61v-79.53h162.18v79.53h19.38V93.13c0-16.09,0-34.33-26.34-34.33ZM1184.94,181.14h-162.18v-35.07h162.18v35.07Z"/>
  <path class="cls-1" d="M163.32,59.61H63.44v215.2h44.71v-79.53h55.17c50.19,0,75.63-22.64,75.63-67.3v-.62c0-44.96-25.44-67.75-75.63-67.75ZM194.24,132.31c0,33.31-13.46,48.83-42.35,48.83h-43.74v-107.4h43.74c28.89,0,42.35,15.67,42.35,49.3v9.27Z"/>
  <polygon class="cls-1" points="689.35 59.61 689.35 74.98 621.24 74.98 621.24 274.81 576.53 274.81 576.53 74.98 508.43 74.98 508.43 59.61 689.35 59.61"/>
  <rect class="cls-1" x="710.73" y="59.61" width="44.71" height="215.2"/>
  <path class="cls-1" d="M966.24,59.61v215.2h-40.15l-92.35-147.4c-10.13-16.39-14.49-24.34-19.44-34.09l-.17-.34-3.89.78.03.44c1.06,15.25,1.54,27.86,1.54,40.89v139.72h-19.38V59.61h47.25l86.95,138.75c8.24,13.1,12.42,20.38,17.89,31.15l.17.34,3.9-.78-.04-.44c-1.2-13.72-1.7-24.98-1.7-38.88V59.61h19.39Z"/>
  <path class="cls-1" d="M484.54,59.61h-222.41c-1.6,0-2.89,1.22-2.89,2.71v9.94c0,1.5,1.29,2.72,2.89,2.72h8.47v91.65c0,2.47,2.01,4.47,4.48,4.47h15.15l-3.04.98c-3.33,1.07-8.93,3.86-8.93,10.53,0,7.27,6.81,16.47,12.38,18.91l1.3.56-1.37.38c-2.93.79-5.25,2.99-6.69,6.35-.48,1.13-.73,2.6-.73,4.39v.15c.02,1.54.2,2.89.3,3.62l.02.18c1.47,11.19,5.36,43.66,5.86,47.81l.11.44.24,1.95-.37.14c-2.61.96-4.05,3.09-4.05,5.97,0,4.11,2.88,6.57,7.7,6.57s7.7-2.46,7.7-6.57c0-2.85-1.41-4.96-3.97-5.94l-.37-.14.05-.39c.46-3.91,4.59-38.5,6.08-49.84l.02-.18c.1-.77.29-2.2.3-3.75v-.02c0-1.79-.25-3.26-.73-4.39-1.44-3.36-3.76-5.56-6.69-6.35l-1.37-.38,1.3-.56c5.57-2.44,12.38-11.64,12.38-18.91,0-6.67-5.6-9.46-8.93-10.53l-3.04-.98h15.15c2.47,0,4.48-2,4.48-4.47v-11.53h116.03v11.53c0,2.47,2.01,4.47,4.48,4.47h15.15l-3.04.98c-3.33,1.07-8.93,3.86-8.93,10.53,0,7.27,6.81,16.47,12.38,18.91l1.3.56-1.37.38c-2.94.79-5.25,2.99-6.69,6.35-.48,1.13-.73,2.6-.73,4.39v.21c.03,1.53.2,2.85.3,3.58l.02.16c1.47,11.19,5.36,43.65,5.85,47.81l.12.44.24,1.95-.37.14c-2.61.96-4.05,3.09-4.05,5.97,0,4.11,2.88,6.57,7.7,6.57s7.69-2.46,7.69-6.57c0-2.85-1.41-4.96-3.96-5.94l-.37-.14.05-.39c1.08-9.07,4.71-39.46,6.08-49.84l.02-.18c.1-.77.29-2.2.29-3.75v-.02c.01-1.79-.24-3.26-.73-4.39-1.43-3.36-3.75-5.56-6.68-6.35l-1.37-.38,1.3-.56c5.57-2.44,12.37-11.64,12.37-18.91,0-6.67-5.59-9.46-8.93-10.53l-3.03-.98h15.15c2.47,0,4.47-2,4.47-4.47v-91.65h8.48c1.59,0,2.89-1.22,2.89-2.72v-9.94c0-1.49-1.3-2.71-2.89-2.71ZM431.35,139.96h-116.03v-24.24h116.03v24.24Z"/>
</svg>